<?xml version="1.0" standalone="no"?>
<!DOCTYPE svg PUBLIC "-//W3C//DTD SVG 20010904//EN" "http://www.w3.org/TR/2001/REC-SVG-20010904/DTD/svg10.dtd">
<!-- Created using Karbon14, part of koffice: http://www.koffice.org/karbon -->
<svg xmlns="http://www.w3.org/2000/svg" xmlns:xlink="http://www.w3.org/1999/xlink" width="305.755pt" height="96.2194pt">
  <defs>
  </defs>
  <g id="defitem0">
    <g id="Calque_1">
    </g>
    <g id="blocgrisV1">
    </g>
    <g id="blocgrisV2">
    </g>
    <g id="blocblanc">
    </g>
    <g id="g241" transform="translate(-1.11022e-15, 35.4819)">
      <path id="path243" fill="#5d004a" fill-opacity="1" fill-rule="nonzero" d="M23.876 30.531L49.648 30.531C49.765 32.101 49.823 33.905 49.823 35.938C49.823 40.591 49.764 43.92 49.648 45.928C49.443 49.475 48.701 52.324 47.423 54.475C46.145 56.627 44.258 58.199 41.762 59.185C39.118 60.233 33.597 60.756 25.199 60.756C19.324 60.756 14.985 60.443 12.181 59.818C9.375 59.194 7.019 58.024 5.111 56.307C2.173 53.661 0.543 49.664 0.221 44.313C0.072 42.162 0.013 39.415 0.044 36.069C0.044 35.546 0.029 33.381 0 29.571C0 28.814 0 28.016 0 27.172C0 22.694 0.132 19.294 0.396 16.966C1.276 8.825 4.213 3.737 9.207 1.7C11.378 0.828 14.185 0.304 17.621 0.131C19.677 0.043 22.408 0 25.815 0C30.69 0 34.119 0.08 36.102 0.24C38.085 0.4 39.81 0.726 41.277 1.221C46.358 2.907 49.119 6.6 49.56 12.299C49.619 13.346 49.648 15.206 49.648 17.881L42.997 17.881C42.968 15.265 42.878 13.426 42.732 12.363C42.584 11.302 42.261 10.277 41.762 9.289C40.881 7.544 38.722 6.484 35.286 6.104C33.084 5.873 29.19 5.755 23.612 5.755C18.649 5.755 15.022 6.089 12.731 6.759C10.029 7.572 8.282 9.783 7.489 13.388C7.076 15.22 6.828 20.802 6.739 30.137C6.768 37.493 6.828 41.812 6.916 43.091C7.063 46.376 7.614 48.87 8.567 50.57C9.522 52.272 10.998 53.4 12.994 53.951C15.492 54.65 20.366 54.998 27.62 54.998C31.673 54.998 34.729 54.773 36.783 54.323C38.839 53.873 40.292 53.123 41.145 52.076C42.437 50.448 43.083 46.448 43.083 40.082C43.083 39.238 43.054 37.975 42.996 36.287L23.876 36.287Z"  transform="matrix(0.965495 0 0 0.966368 -2.46519e-31 0.000966368)" />
      <path id="path245" fill="#5d004a" fill-opacity="1" fill-rule="nonzero" d="M1.42109e-14 59.535L1.42109e-14 0L28.633 0C33.979 0 38.003 0.873 40.704 2.616C43.054 4.129 44.639 6.412 45.461 9.464C45.99 11.356 46.255 13.899 46.255 17.098C46.255 23.582 45.079 27.885 42.731 30.008C41.292 31.316 39.001 32.219 35.857 32.712L35.857 32.842C38.734 33.018 41.025 34.007 42.731 35.808C44.111 37.321 44.933 39.182 45.198 41.393C45.344 42.497 45.419 43.486 45.419 44.358L45.419 59.536L38.677 59.536L38.677 45.886C38.677 43.939 38.502 42.323 38.149 41.045C36.915 37.089 33.289 35.242 27.268 35.505L6.74 35.505L6.74 59.536L0 59.536ZM6.74 29.746L26.388 29.746C30.764 29.746 33.95 29.15 35.947 27.958C38.355 26.504 39.56 23.625 39.56 19.321C39.56 16.792 39.485 14.67 39.339 12.955C38.985 9.35 37.311 7.152 34.317 6.367C32.701 5.961 30.837 5.758 28.723 5.758L6.74 5.758Z"  transform="matrix(0.965495 0 0 0.966368 56.2275 0.590451)" />
      <path id="path247" fill="#5d004a" fill-opacity="1" fill-rule="nonzero" d="M6.742 5.758L6.742 25.951L37.314 25.951L37.314 31.621L6.742 31.621L6.742 53.777L38.634 53.777L38.634 59.535L0 59.535L0 0L38.634 0L38.634 5.758Z"  transform="matrix(0.965495 0 0 0.966368 108.159 0.590451)" />
      <path id="path249" fill="#5d004a" fill-opacity="1" fill-rule="nonzero" d="M51.63 7.10543e-15L28.899 34.674L28.899 59.535L22.159 59.535L22.159 34.674L0 7.10543e-15L7.885 7.10543e-15L20.793 20.105C22.555 22.898 24.184 25.486 25.683 27.87L25.815 27.87C26.636 26.561 27.445 25.267 28.237 23.988L30.706 20.105L43.568 0L51.63 0Z"  transform="matrix(0.965495 0 0 0.966368 147.927 0.590451)" />
      <path id="path251" fill="#5d004a" fill-opacity="1" fill-rule="nonzero" d="M41.805 40.259L48.547 40.259C48.547 41.739 48.547 42.716 48.547 43.18C48.574 48.386 47.973 52.136 46.738 54.433C45.064 57.545 41.892 59.478 37.222 60.234C35.079 60.583 29.954 60.757 21.849 60.757C16.974 60.757 13.199 60.336 10.528 59.491C5.976 58.096 2.951 54.854 1.453 49.765C0.483 46.422 0 40.037 0 30.618C0 22.623 0.071 17.737 0.221 15.964C0.513 11.98 1.534 8.804 3.282 6.433C5.028 4.064 7.621 2.355 11.057 1.308C13.965 0.436 19.823 0 28.635 0C33.451 0 36.903 0.32 38.985 0.959C43.626 2.413 46.372 5.655 47.225 10.686C47.459 11.937 47.651 14.64 47.797 18.799L41.057 18.799C41.057 17.81 41.043 17.199 41.014 16.966C40.985 14.203 40.748 12.089 40.309 10.62C39.868 9.153 39.133 8.068 38.106 7.37C36.579 6.295 33.288 5.757 28.237 5.757C22.598 5.757 18.253 5.946 15.198 6.323C13.231 6.556 11.68 7.101 10.551 7.96C9.421 8.817 8.576 10.104 8.018 11.819C7.402 13.653 7.093 16.573 7.093 20.586C7.093 27.798 7.181 34.165 7.359 39.691C7.592 46.754 8.839 51.145 11.101 52.862C12.628 54.026 15.095 54.68 18.503 54.825C20.235 54.912 22.087 54.957 24.052 54.957C28.81 54.957 32.386 54.767 34.781 54.388C37.174 54.011 38.842 53.386 39.781 52.513C41.191 51.175 41.894 48.341 41.894 44.008C41.893 43.077 41.864 41.827 41.805 40.259Z"  transform="matrix(0.965495 0 0 0.966368 198.201 4.44089e-15)" />
    </g>
    <g id="g2519" transform="translate(260.904, -0.0553068)">
      <path id="path253" fill="#780d68" fill-opacity="1" fill-rule="nonzero" d="M44.276 39.3438L41.112 18.7478C40.864 17.0208 39.051 16.0588 37.147 16.5588L23.208 20.4398C19.175 21.4908 15.687 19.4188 15.421 15.9198L14.325 1.89984C14.212 0.459839 12.716 -0.327161 10.975 0.129839L3.713 2.02984C2.246 2.41284 0.938 2.24684 0 1.69184L0.434 60.5238L50.549 47.2418C47.137 46.0858 44.826 43.1778 44.276 39.3438Z"  transform="matrix(0.965495 0 0 0.966368 0.23365 50.2435)" />
      <path id="path255" fill="#780d68" fill-opacity="1" fill-rule="nonzero" d="M23.8582 2.52L15.3112 4.75C13.6062 5.194 12.6902 6.586 13.2722 7.873L19.0812 20.705C20.5262 23.894 18.4662 27.41 14.4362 28.461L2.51617 31.477C0.616175 31.972 -0.426825 33.74 0.166175 35.38L6.09417 54.489C7.42217 58.143 7.65317 61.55 5.17817 64.236L56.0142 50.612L27.1722 0C26.7002 1.122 25.5382 2.083 23.8582 2.52Z"  transform="matrix(0.965495 0 0 0.966368 67.2089 27.2303)" />
      <path id="path257" fill="#b3c5d3" fill-opacity="1" fill-rule="nonzero" d="M7.15807 18.8967L18.6271 15.9067C21.1021 15.2617 22.5881 13.0957 21.9691 11.0957L19.2371 2.31667C18.6781 0.527673 16.3871 -0.418327 14.1021 0.178673L3.50807 2.93667C1.22707 3.52967 -0.321932 5.47767 0.0570679 7.31567L1.90707 16.3217C2.33707 18.3737 4.68507 19.5397 7.15807 18.8967Z"  transform="matrix(0.965495 0 0 0.966368 35.0696 26.2614)" />
      <g id="g259">
        <g id="g261">
          <path id="path263" fill="#780d68" fill-opacity="1" fill-rule="nonzero" d="M80.983 0L47.929 8.582C48.889 9.022 49.117 10.012 49.317 10.739L51.571 19.445C52.208 21.67 50.698 22.544 48.553 23.1L38.377 25.718C36.506 26.093 35.311 24.83 34.984 23.635L33.041 14.531C32.863 13.67 32.852 12.997 33.085 12.435L0 21.024L0.125 38.044C0.996 37.121 2.219 36.366 3.58 36.011L15.84 32.817C18.479 32.129 20.742 33.122 20.979 35.113L22.333 46.313C22.491 47.662 24.005 48.401 25.712 47.958L33.638 45.89C35.349 45.444 36.523 44.006 36.267 42.685L34.121 31.768C33.746 29.815 35.584 27.705 38.226 27.018L50.492 23.822C53.135 23.132 55.738 24.094 56.357 25.985L59.806 36.557C60.224 37.831 61.947 38.511 63.648 38.068L71.543 36.01C73.246 35.567 74.205 34.188 73.693 32.938L69.427 22.567C68.667 20.713 70.206 18.684 72.845 17.995L85.109 14.8C86.576 14.419 88.123 14.528 89.388 14.994Z"  transform="matrix(0.965495 0 0 0.966368 0 0)" />
        </g>
      </g>
      <path id="path265" fill="#6e90a6" fill-opacity="1" fill-rule="nonzero" d="M7.15898 18.8975L18.626 15.9075C21.101 15.2615 22.591 13.0965 21.968 11.0945L19.236 2.31846C18.679 0.529459 16.388 -0.418541 14.101 0.178459L3.50898 2.93846C1.22998 3.53146 -0.319024 5.47746 0.0559759 7.31846L1.90798 16.3225C2.33598 18.3725 4.68398 19.5395 7.15898 18.8975Z"  transform="matrix(0.965495 0 0 0.966368 38.2858 39.4882)" />
    </g>
    <path id="path3948" fill="#6e90a6" fill-opacity="1" fill-rule="nonzero" d="M111.278 15.9689L113.925 15.9689C113.925 16.5572 113.925 16.9436 113.925 17.1281C113.938 19.1927 113.7 20.6806 113.216 21.5918C112.558 22.826 111.313 23.593 109.479 23.8929C108.637 24.0312 106.624 24.1005 103.441 24.1005C101.526 24.1005 100.044 23.9332 98.9943 23.5987C97.2065 23.0451 96.0185 21.7591 95.4303 19.7406C95.0497 18.4142 94.8593 15.8825 94.8593 12.1454C94.8593 8.97353 94.8882 7.0358 94.9458 6.33222C95.0612 4.75206 95.4591 3.49485 96.1396 2.56056C96.8317 1.61479 97.8524 0.93427 99.2019 0.51903C100.344 0.17303 102.645 1e-05 106.105 0C107.997 1e-05 109.352 0.12685 110.171 0.38061C111.993 0.95735 113.072 2.2434 113.406 4.23878C113.498 4.73475 113.573 5.80742 113.631 7.45678L110.984 7.45678C110.984 7.06465 110.979 6.82243 110.966 6.73014C110.954 5.63442 110.862 4.79819 110.689 4.22147C110.516 3.63325 110.228 3.20072 109.824 2.92389C109.225 2.49715 107.933 2.28376 105.949 2.28374C103.734 2.28376 102.027 2.35864 100.828 2.50865C100.055 2.60095 99.4437 2.82011 98.9939 3.16611C98.5556 3.50061 98.2269 4.00811 98.0078 4.6886C97.7655 5.41527 97.6444 6.57445 97.6444 8.16613C97.6444 11.0266 97.6789 13.5526 97.7483 15.744C97.8406 18.5468 98.3307 20.2885 99.2189 20.969C99.8186 21.4303 100.787 21.6899 102.125 21.7475C102.806 21.782 103.533 21.7994 104.305 21.7994C106.174 21.7994 107.575 21.7245 108.51 21.5745C109.455 21.4246 110.113 21.1766 110.482 20.8306C111.036 20.3 111.312 19.1754 111.312 17.4568C111.312 17.0877 111.3 16.5918 111.278 15.9689M90.1015 15.969L92.7486 15.969C92.7486 16.5572 92.7486 16.9436 92.7486 17.1281C92.7592 19.1927 92.5237 20.6806 92.0393 21.5918C91.3818 22.826 90.1361 23.593 88.3022 23.8929C87.4602 24.0312 85.4475 24.1005 82.2641 24.1005C80.3495 24.1005 78.8673 23.9332 77.8177 23.5988C76.0299 23.0451 74.8419 21.7591 74.2537 19.7406C73.8731 18.4142 73.6828 15.8825 73.6828 12.1454C73.6828 8.97353 73.7116 7.0358 73.7693 6.33222C73.8846 4.75206 74.2825 3.49485 74.963 2.56056C75.6551 1.61479 76.6758 0.93427 78.0253 0.51903C79.1672 0.17303 81.4683 1e-05 84.9285 4.26326e-14C86.8201 1e-05 88.1753 0.12685 88.9943 0.38061C90.8166 0.95735 91.8951 2.2434 92.2296 4.23878C92.3219 4.73475 92.3968 5.80742 92.4545 7.45678L89.8074 7.45678C89.8074 7.06465 89.8024 6.82243 89.7897 6.73014C89.7773 5.63442 89.6859 4.79819 89.5129 4.22147C89.3398 3.63325 89.0515 3.20072 88.6478 2.92389C88.0481 2.49715 86.7562 2.28376 84.7724 2.28374C82.5578 2.28376 80.8508 2.35864 79.6513 2.50865C78.8785 2.60095 78.2672 2.82011 77.8173 3.16611C77.379 3.50061 77.0503 4.00811 76.8312 4.6886C76.589 5.41527 76.4678 6.57445 76.4678 8.16613C76.4678 11.0266 76.5024 13.5526 76.5716 15.744C76.6639 18.5468 77.1541 20.2885 78.0422 20.969C78.642 21.4303 79.6109 21.6899 80.9488 21.7475C81.6293 21.782 82.356 21.7994 83.1288 21.7994C84.9973 21.7994 86.3987 21.7245 87.333 21.5745C88.2787 21.4246 88.9362 21.1766 89.3053 20.8306C89.8589 20.3 90.1357 19.1754 90.1358 17.4568C90.1357 17.0877 90.1234 16.5918 90.1013 15.9689M60.623 0.22848L51.9811 23.8563L54.797 23.8563L56.6096 18.8718L68.5853 18.8718L70.3978 23.8563L73.2137 23.8563L64.3776 0.22848ZM62.565 2.39705L67.8085 16.7356L57.3864 16.7356ZM49.5996 0.24221L49.5996 23.8583L46.9525 23.8583L46.9525 4.96542L46.9525 3.54673L46.9699 2.83738L46.9873 2.12803L46.9181 2.12803C46.6528 2.84317 46.3644 3.57558 46.053 4.32527L37.9907 23.8583L35.3263 23.8583L27.2467 4.5502L26.7796 3.46022L26.5719 2.90658C26.5027 2.73367 26.4335 2.55482 26.3643 2.37025L26.2951 2.37025L26.3125 3.0104L26.3299 3.66783L26.3299 4.96542L26.3299 23.8583L23.6829 23.8583L23.6829 0.24221L28.3023 0.24221L34.5999 15.5191L35.6033 17.9932L36.1051 19.2216L36.5895 20.45L36.6587 20.45L37.1431 19.2216L37.6449 17.9932L38.6483 15.5364L44.9287 0.24221L49.6 0.24221M8.67431 0.22851L0 23.8563L2.84828 23.8563L4.66082 18.8718L16.6042 18.8718L18.4491 23.8563L21.2326 23.8563L12.3965 0.22851ZM10.5839 2.39708L15.8274 16.7356L5.40526 16.7356Z"  transform="matrix(0.965495 0 0 0.966368 135.062 97.0378)" />
  </g>
</svg>
